HIERARCHY
ROOT joint_Root
{
	OFFSET 0.0 0.0 0.0
	CHANNELS 6 Xposition Yposition Zposition Zrotation Xrotation Yrotation 
	JOINT Hips
	{
		OFFSET 4.5925 91.4895 -427.239
		CHANNELS 6 Xposition Yposition Zposition Zrotation Xrotation Yrotation 
		JOINT Spine
		{
			OFFSET 15.7357 0.0 0.0
			CHANNELS 6 Xposition Yposition Zposition Zrotation Xrotation Yrotation 
			JOINT Chest
			{
				OFFSET 8.98455 -0.406207 0.0
				CHANNELS 6 Xposition Yposition Zposition Zrotation Xrotation Yrotation 
				JOINT Neck
				{
					OFFSET 16.3773 0.0 0.0
					CHANNELS 6 Xposition Yposition Zposition Zrotation Xrotation Yrotation 
					JOINT Head
					{
						OFFSET 6.45672 0.0 0.0
						CHANNELS 6 Xposition Yposition Zposition Zrotation Xrotation Yrotation 
						End Site
						{
							OFFSET 0.0 0.0 0.0
						}
					}
				}
				JOINT Shoulder_L
				{
					OFFSET 12.9942 -0.242716 4.98039
					CHANNELS 6 Xposition Yposition Zposition Zrotation Xrotation Yrotation 
					JOINT UpperArm_L
					{
						OFFSET 5.34809 0.0 0.0
						CHANNELS 6 Xposition Yposition Zposition Zrotation Xrotation Yrotation 
						JOINT LowerArm_L
						{
							OFFSET 24.3286 1.87007e-05 0.0
							CHANNELS 6 Xposition Yposition Zposition Zrotation Xrotation Yrotation 
							JOINT Hand_L
							{
								OFFSET 22.2916 0.0 0.0
								CHANNELS 6 Xposition Yposition Zposition Zrotation Xrotation Yrotation 
								End Site
								{
									OFFSET 0.0 0.0 0.0
								}
							}
						}
					}
				}
				JOINT Shoulder_R
				{
					OFFSET 12.9945 -0.242716 -4.98039
					CHANNELS 6 Xposition Yposition Zposition Zrotation Xrotation Yrotation 
					JOINT UpperArm_R
					{
						OFFSET -5.34813 0.0 0.0
						CHANNELS 6 Xposition Yposition Zposition Zrotation Xrotation Yrotation 
						JOINT LowerArm_R
						{
							OFFSET -24.3289 0.000322201 0.0
							CHANNELS 6 Xposition Yposition Zposition Zrotation Xrotation Yrotation 
							JOINT Hand_R
							{
								OFFSET -22.2915 -0.000108084 0.0
								CHANNELS 6 Xposition Yposition Zposition Zrotation Xrotation Yrotation 
								End Site
								{
									OFFSET 0.0 0.0 0.0
								}
							}
						}
					}
				}
			}
		}
		JOINT UpperLeg_L
		{
			OFFSET -2.19248 -6.46944 0.0
			CHANNELS 6 Xposition Yposition Zposition Zrotation Xrotation Yrotation 
			JOINT LowerLeg_L
			{
				OFFSET 39.0811 0.0 -1.23785e-05
				CHANNELS 6 Xposition Yposition Zposition Zrotation Xrotation Yrotation 
				JOINT Foot_L
				{
					OFFSET 40.9854 0.0 -1.26872e-05
					CHANNELS 6 Xposition Yposition Zposition Zrotation Xrotation Yrotation 
					JOINT Toes_L
					{
						OFFSET 11.7543 0.0 0.0
						CHANNELS 6 Xposition Yposition Zposition Zrotation Xrotation Yrotation 
						End Site
						{
							OFFSET 0.0 0.0 0.0
						}
					}
				}
			}
		}
		JOINT UpperLeg_R
		{
			OFFSET -2.19251 6.46944 0.0
			CHANNELS 6 Xposition Yposition Zposition Zrotation Xrotation Yrotation 
			JOINT LowerLeg_R
			{
				OFFSET -39.0811 -0.00228153 -0.0401928
				CHANNELS 6 Xposition Yposition Zposition Zrotation Xrotation Yrotation 
				JOINT Foot_R
				{
					OFFSET -40.9854 0.0 0.0
					CHANNELS 6 Xposition Yposition Zposition Zrotation Xrotation Yrotation 
					JOINT Toes_R
					{
						OFFSET -11.7543 0.0 0.0
						CHANNELS 6 Xposition Yposition Zposition Zrotation Xrotation Yrotation 
						End Site
						{
							OFFSET 0.0 0.0 0.0
						}
					}
				}
			}
		}
	}
}
MOTION
Frames:	4
Frame Time:	0.0333333
0.000000 0.000000 0.000000 0.000000 0.000000 -0.000000 0.239823 91.423100 2.161690 88.664400 -4.399670 3.491890 15.735700 0.000005 -0.000001 84.991700 87.306600 -85.301800 8.984550 -0.406207 -0.000000 -2.400900 -0.442620 -0.629385 16.377300 -0.000001 -0.000001 9.841830 -3.921840 2.159910 6.456720 -0.000001 -0.000000 9.332300 -4.124120 -2.497680 12.994200 -0.242716 4.980390 -84.413400 -10.885500 -62.617500 5.348090 -0.000007 -0.000001 -68.898700 -52.634000 -114.505000 24.328600 0.000019 0.000005 11.859600 12.179700 -44.866300 22.291600 -0.000001 0.000005 23.389800 5.303480 -0.025550 12.994500 -0.242716 -4.980390 93.240200 -8.518400 -69.083800 -5.348130 -0.000001 -0.000004 -63.298000 -51.419700 -111.974000 -24.328900 0.000322 -0.000009 0.459407 0.398335 -49.146900 -22.291500 -0.000108 -0.000004 23.317200 5.471060 -5.409970 -2.192480 -6.469440 -0.000000 -175.107000 -13.697200 -2.155180 39.081100 -0.000007 -0.000012 -0.180493 0.367488 26.158300 40.985400 -0.000006 -0.000013 0.174995 5.296670 -70.240000 11.754300 -0.000000 0.000003 -0.000228 -0.002066 -16.655200 -2.192510 6.469440 -0.000001 174.904000 22.845000 179.155000 -39.081100 -0.002282 -0.040193 -0.049209 0.114249 24.688600 -40.985400 0.000008 0.000006 6.736330 20.202800 -71.299700 -11.754300 -0.000006 -0.000006 -0.001039 -0.015965 -17.222400
0.000000 0.000000 0.000000 0.000000 0.000000 -0.000000 0.206615 91.425600 2.157020 88.639900 -4.494430 3.433550 15.735700 0.000005 -0.000001 85.289700 87.295500 -85.591100 8.984550 -0.406207 -0.000000 -2.376350 -0.417374 -0.611368 16.377300 -0.000001 -0.000001 9.812690 -3.935020 2.136690 6.456720 -0.000001 -0.000000 9.220990 -4.165340 -2.385120 12.994200 -0.242716 4.980390 -84.462800 -10.736200 -62.507200 5.348090 -0.000007 -0.000001 -69.013600 -52.985500 -114.947000 24.328600 0.000019 0.000005 11.762200 12.132300 -44.733100 22.291600 -0.000001 0.000005 23.386800 5.302480 0.002457 12.994500 -0.242716 -4.980390 93.205200 -8.406730 -69.041000 -5.348130 -0.000001 -0.000004 -63.216200 -51.420600 -112.074000 -24.328900 0.000322 -0.000009 0.405933 0.352840 -49.086300 -22.291500 -0.000108 -0.000004 23.187100 5.471560 -5.428830 -2.192480 -6.469440 -0.000000 -175.080000 -13.737500 -2.195990 39.081100 -0.000007 -0.000012 -0.178252 0.363058 26.150100 40.985400 -0.000006 -0.000013 0.149427 5.268360 -70.239400 11.754300 -0.000000 0.000003 -0.000209 -0.001918 -16.649800 -2.192510 6.469440 -0.000001 174.963000 22.871200 179.097000 -39.081100 -0.002282 -0.040193 -0.048307 0.112407 24.665700 -40.985400 0.000008 0.000006 6.752250 20.316600 -71.289900 -11.754300 -0.000006 -0.000006 -0.000960 -0.014842 -17.176800
0.000000 0.000000 0.000000 0.000000 0.000000 -0.000000 0.187035 91.436200 2.166590 88.634400 -4.607530 3.352530 15.735700 0.000005 -0.000001 85.833000 87.292900 -86.123900 8.984550 -0.406207 -0.000000 -2.367000 -0.367587 -0.589290 16.377300 -0.000001 -0.000001 9.817870 -3.965660 2.134550 6.456720 -0.000001 -0.000000 9.104090 -4.261750 -2.378700 12.994200 -0.242716 4.980390 -84.466800 -10.690100 -62.424800 5.348090 -0.000007 -0.000001 -69.480800 -53.261100 -115.452000 24.328600 0.000019 0.000005 11.740100 12.046500 -44.878100 22.291600 -0.000001 0.000005 23.210900 5.305280 -0.076231 12.994500 -0.242716 -4.980390 93.173300 -8.313260 -69.020700 -5.348130 -0.000001 -0.000004 -63.087400 -51.467200 -112.154000 -24.328900 0.000322 -0.000009 0.396764 0.346967 -48.916300 -22.291500 -0.000108 -0.000004 23.268000 5.472260 -5.454920 -2.192480 -6.469440 -0.000000 -175.079000 -13.762400 -2.228640 39.081100 -0.000007 -0.000012 -0.180827 0.369504 26.076400 40.985400 -0.000006 -0.000013 0.100822 5.172550 -70.204100 11.754300 -0.000000 0.000003 -0.000212 -0.001946 -16.650800 -2.192510 6.469440 -0.000001 174.987000 22.945200 179.041000 -39.081100 -0.002282 -0.040193 -0.049464 0.115271 24.600500 -40.985400 0.000008 0.000006 6.793750 20.493200 -71.274800 -11.754300 -0.000006 -0.000006 -0.000962 -0.014865 -17.177700
0.000000 0.000000 0.000000 0.000000 0.000000 -0.000000 0.158740 91.440000 2.174960 88.603100 -4.686720 3.264450 15.735700 0.000005 -0.000001 85.919500 87.297200 -86.187000 8.984550 -0.406207 -0.000000 -2.374900 -0.360868 -0.542498 16.377300 -0.000001 -0.000001 9.820090 -3.952910 2.087580 6.456720 -0.000001 -0.000000 9.050100 -4.334770 -2.359700 12.994200 -0.242716 4.980390 -84.480100 -10.597600 -62.279300 5.348090 -0.000007 -0.000001 -69.871400 -53.461900 -115.981000 24.328600 0.000019 0.000005 11.748100 12.030000 -44.936900 22.291600 -0.000001 0.000005 23.337800 5.304080 -0.042435 12.994500 -0.242716 -4.980390 93.169400 -8.273530 -68.953000 -5.348130 -0.000001 -0.000004 -63.091000 -51.380800 -112.279000 -24.328900 0.000322 -0.000009 0.454505 0.398878 -48.804600 -22.291500 -0.000108 -0.000004 23.205100 5.471420 -5.423550 -2.192480 -6.469440 -0.000000 -175.047000 -13.781800 -2.279090 39.081100 -0.000007 -0.000012 -0.181061 0.370399 26.050900 40.985400 -0.000006 -0.000013 0.067865 5.135450 -70.206600 11.754300 -0.000000 0.000003 -0.000212 -0.001948 -16.650900 -2.192510 6.469440 -0.000001 175.075000 22.931700 178.962000 -39.081100 -0.002282 -0.040193 -0.048995 0.114436 24.564900 -40.985400 0.000008 0.000006 6.840090 20.532200 -71.275700 -11.754300 -0.000006 -0.000006 -0.000881 -0.013698 -17.130300
